<svg version="1.1" xmlns="http://www.w3.org/2000/svg" xmlns:xlink="http://www.w3.org/1999/xlink" viewBox="0,0,1024,1024">
	<desc>cake icon - Licensed under Apache License v2.0 (http://www.apache.org/licenses/LICENSE-2.0) - Created with Iconfu.com - Derivative work of Material icons (Copyright Google Inc.)</desc>
	<g fill="none" fill-rule="nonzero" style="mix-blend-mode: normal">
		<path d="M910.98,512.17v57.66c0,23.43 -5.99,45.47 -16.52,64.69c10.68,11.24 16.89,26.32 16.89,42.32v173.09c0,54.59 -44.4,98.99 -98.99,98.99h-600.74c-54.59,0 -98.99,-44.4 -98.99,-98.99v-173.09c0,-15.88 6.12,-30.85 16.66,-42.07c-10.61,-19.28 -16.66,-41.41 -16.66,-64.94v-57.82c0,-96.26 77.82,-174.08 174.08,-174.08h126.29v-13.65c0,-5.7 0.78,-11.21 2.23,-16.45c-24.56,-24.71 -39.77,-58.72 -39.77,-96.19c0,-24.79 6.47,-48.98 19.63,-70.28l63.66,-110.56c10.97,-19.05 31.27,-30.78 53.25,-30.78c21.98,0 42.28,11.74 53.25,30.78l63.66,110.56c13.16,21.3 19.63,45.49 19.63,70.28c0,37.46 -15.14,71.55 -39.74,96.3c1.43,5.2 2.2,10.68 2.2,16.34v13.65h126.29c96.12,0 174.18,77.71 173.7,174.25z" fill="#000000"/>
		<g fill="#ffffff">
			<path d="M849.54,512v57.82c0,40.55 -33.04,73.59 -73.59,73.59c-19.53,0 -37.92,-7.51 -51.81,-21.4l-79.97,-79.97l-80.35,79.97c-27.78,27.78 -76.23,27.78 -104.01,0l-79.97,-79.97l-80.34,79.97c-13.52,13.9 -32.29,21.4 -51.81,21.4c-40.55,0 -73.59,-33.04 -73.59,-73.59v-57.82c0,-62.33 50.31,-112.64 112.64,-112.64h187.73v-75.09h75.1v75.09h187.73c62.33,0 112.64,50.31 112.26,112.64zM776.33,699.73c27.41,0 52.57,-8.63 73.59,-22.9v173.09c0,20.65 -16.9,37.55 -37.55,37.55h-600.74c-20.65,0 -37.55,-16.9 -37.55,-37.55v-173.09c21.02,14.26 46.18,22.9 73.59,22.9c34.54,0 67.21,-13.52 91.61,-37.92l40.93,-40.17l40.17,40.17c49.18,49.18 134.79,48.81 183.6,0l40.55,-40.17l40.18,40.17c24.4,24.4 57.07,37.92 91.61,37.92zM436.91,211.63c0,-14.26 3.75,-27.41 10.89,-38.68l64.2,-111.51l64.2,111.51c7.14,11.26 10.89,24.41 10.89,38.68c0,41.3 -33.41,75.09 -75.09,75.09c-41.3,0 -75.09,-33.79 -75.09,-75.09z"/>
		</g>
	</g>
</svg>